<svg xmlns="http://www.w3.org/2000/svg" xmlns:xlink="http://www.w3.org/1999/xlink" viewBox="0 0 976.26 976.27"><defs><style>.cls-1{fill:none;}.cls-2{isolation:isolate;}.cls-3{fill:#7db3ef;}.cls-4{fill:#f2dcce;}.cls-5{fill:#3a77c7;}.cls-6{clip-path:url(#clip-path);}.cls-7{fill:#dba342;}.cls-8{fill:#e6ded6;}.cls-10,.cls-19,.cls-25,.cls-30,.cls-33,.cls-8{mix-blend-mode:multiply;}.cls-9{fill:#f0bd67;}.cls-10{fill:#b3af92;}.cls-11{fill:#f39a75;}.cls-12{fill:#de7b4f;}.cls-13{fill:#3d251f;}.cls-14{fill:#75544c;}.cls-15{fill:#1c1714;}.cls-16{fill:#8a5648;}.cls-17{fill:#fff;}.cls-18{fill:#ced7f2;}.cls-19{fill:#c9d0d6;}.cls-20{fill:#cf9568;}.cls-21{fill:#3b2939;}.cls-22{fill:#30222f;}.cls-23{fill:#477334;}.cls-24{fill:#d9631f;}.cls-25{fill:#e6c9bb;}.cls-26{fill:#409958;}.cls-27{fill:#e8702c;}.cls-28{fill:#d95d4a;}.cls-29{fill:#e3736b;}.cls-30{fill:#90b581;}.cls-31{fill:#47302a;}.cls-32{fill:#bf6e50;}.cls-33{fill:#d4ccc5;}.cls-34{fill:#6e586b;}</style><clipPath id="clip-path" transform="translate(0 0)"><path class="cls-1" d="M976.26,488.13c0,227.16-155.17,418.09-365.3,472.55q-7.71,2-15.51,3.75l-3,.67a488.58,488.58,0,0,1-84,10.75q-10.12.42-20.34.42-9.39,0-18.7-.35a488.88,488.88,0,0,1-91.78-12.21l-3-.7q-12.32-2.93-24.39-6.48C147.81,897,0,709.84,0,488.13,0,218.55,218.54,0,488.13,0S976.26,218.55,976.26,488.13Z"/></clipPath></defs><title>Asset 3</title><g class="cls-2"><g id="Layer_2" data-name="Layer 2"><g id="Layer_1-2" data-name="Layer 1"><path class="cls-3" d="M973,431.24c-94.17-19.92-203.53-16.66-330,21.95Q518.93,491.07,411.36,518C263.33,372.63,120.84,343.55,20.5,347.84A486,486,0,0,1,143,143C333.6-47.65,642.66-47.66,833.29,143A486.05,486.05,0,0,1,973,431.24Z" transform="translate(0 0)"/><path class="cls-4" d="M870.08,792.17a492,492,0,0,1-36.79,41.12c-190.63,190.63-499.69,190.64-690.32,0A488.12,488.12,0,0,1,20.5,347.84C120.84,343.55,263.33,372.63,411.36,518c32.22,31.62,64.7,68.76,97.06,112.25C607.54,763.46,737.37,797.05,870.08,792.17Z" transform="translate(0 0)"/><path class="cls-5" d="M870.08,792.17c-132.71,4.88-262.54-28.71-361.66-161.93-32.36-43.49-64.84-80.63-97.06-112.25Q519.12,490.85,643,453.19c126.44-38.61,235.8-41.87,330-21.95C987.65,557.21,953.36,687.81,870.08,792.17Z" transform="translate(0 0)"/><g class="cls-6"><path class="cls-7" d="M467.27,220l-93.74,32c-3.67-2.28-11.72-7.72-15.95-15.53a21.9,21.9,0,0,1-2.7-9.21c-.18-4,.75-9.48,27-34.41,0,0,34.23-32.55,49.85-30.08a19.14,19.14,0,0,1,4.37,1.3c2.74,1.21,5.21,3.25,7.86,6.6a120,120,0,0,1,11.86,17.63C465.46,206,467.27,220,467.27,220Z" transform="translate(0 0)"/><path class="cls-8" d="M467.27,220l-93.74,32c-3.67-2.28-11.72-7.72-15.95-15.53a168.87,168.87,0,0,1,47.48-33.67,164.16,164.16,0,0,1,50.73-14.5C465.46,206,467.27,220,467.27,220Z" transform="translate(0 0)"/><path class="cls-9" d="M536.79,285.74c-3.21,45.24-38.69,97.55-92.86,99.69-51.57,2.05-97.74-44.59-101.23-86.16L373.53,282H343.91c2-8.47,7.9-22.84,26.5-37.3-1.21-3.16-1-4.37-.46-4.83,1-.84,3.16,1.07,4.56.14s.32-3.21,1.62-4.33c.7-.6,2.1-.88,5.3.47q13.47-10.81,26.93-21.67c15.44-21.67,52.82-32.18,74-27,26.32,6.51,45,35,51.89,65.66l-16.55,6.46,18.92,8.65A109.48,109.48,0,0,1,536.79,285.74Z" transform="translate(0 0)"/><path class="cls-10" d="M503.57,285.8C501.78,311,482,340.16,451.84,341.35c-33.07,1.31-59.35-31.74-56.09-56.09,2.27-17,18.61-27.65,36.25-39.17,16-10.46,28-18.29,41.22-15C493.09,236,505.17,263.37,503.57,285.8Z" transform="translate(0 0)"/><path class="cls-11" d="M496.12,312.51c-3.8,4.55-6.78,6-8,6.55-6.22,2.69-13,1.27-20.28-1.61-21.1-8.37-47.38-29.41-52.51-33.62,2.32-1.37,5.87-3.4,10.32-5.68,7.32-3.69,9.9-4.3,12.26-7.07,3.53-4.12,3.5-9.47,3.52-13,0-11.77.22-26.84.26-44.61,2.05,1.37,4.14,2.73,6.2,4.1q20.17,13.32,40.4,26.6l-.8,25.93a9.54,9.54,0,0,0,.76,5.28c1.6,3.33,5,4.65,9.43,6.37a42.42,42.42,0,0,0,8.8,2.37C506,291.19,504.13,302.9,496.12,312.51Z" transform="translate(0 0)"/><path class="cls-12" d="M488.23,275.42c-1.91,3-5.9,8.25-11.39,8.61-8.7.58-15.32-11.46-19.15-18.43-4.45-8.09-11.23-24-9.82-48q10.06,6.66,20.18,13.31t20.22,13.29l-.8,25.93C487.72,271.9,488,273.66,488.23,275.42Z" transform="translate(0 0)"/><path class="cls-11" d="M517.84,186.1C517.78,190,513,220,509.52,236c-.66,3.07-1.26,5.66-1.81,7.41-2.71,9-5.72,13.73-8.85,17.17-1.75,1.93-2.59,2.95-4,3.73-8.86,5.06-22.23-3.85-26.45-6.68a59.33,59.33,0,0,1-13.62-12.78,77.31,77.31,0,0,1-10.18-16.08c-3.13-3-5.78-5.61-8.07-7.9-8.32-8.13-11.51-11.57-12.23-12.59-.12-.18-1.81-2.59-2.47-3.49s-.73-1-1.21-1.69A51.52,51.52,0,0,1,414,175.62c1-20.91,16.87-39.29,36.7-45.92C469.88,123.32,493,128,506.09,143,506.09,143,518.38,157.06,517.84,186.1Z" transform="translate(0 0)"/><path class="cls-13" d="M443.38,233.19c.07-1.09.22-2.92.56-5.18,2.47-16.5,4.9-18.74,5.84-19.35a9,9,0,0,1,5.8-1.25c.25-4,.57-9.63.89-16.42.42-9.12.34-10,0-11.39-2-8.37-9.19-16.56-9.46-16.79l-.33-.41a.44.44,0,0,1-.09-.23c0-.5,27.08-1,47.78-2.87,6.31-.58,9.45-1,13.06.89,8.66,4.63,10.13,17.7,10.43,24.19A43.3,43.3,0,0,0,521,159.5c-2.77-15-13.59-24.7-17.11-27.87-.3-.27-.7-.62-1.16-1-17.25-14.41-59.58-13.62-73.37,7.24a28.39,28.39,0,0,0-3.8,8.62,39.22,39.22,0,0,0-8,9.93c-6.37,11.25-5.12,22.53-4.38,29.15a63.3,63.3,0,0,0,30.28,47.62Z" transform="translate(0 0)"/><path class="cls-14" d="M501.3,150.19s-14.45,5.14-13.36,3.23,5.13-8-3.13-5.59-27.53,10.7-21.33,4.38,11.75-11.34.73-8-26.93,13.63-24,7.31,10.83-17.34,13.79-13.57,17.48-4.83,20.27-1.72-5.34,8.31,1.63,7.79,20.52-8.8,20.49-3.07-8.17,9.46-1.64,7.73,13.2-3.33,11.92-1.33S501.3,150.19,501.3,150.19Z" transform="translate(0 0)"/><path class="cls-15" d="M500.19,206c.21,2.58,1.5,4.59,2.88,4.48s2.34-2.29,2.14-4.88-1.49-4.59-2.88-4.48S500,203.45,500.19,206Z" transform="translate(0 0)"/><path class="cls-15" d="M477.43,206c.2,2.58,1.49,4.59,2.88,4.48s2.34-2.29,2.13-4.88-1.49-4.59-2.87-4.48S477.23,203.45,477.43,206Z" transform="translate(0 0)"/><path class="cls-13" d="M504.94,190.15c2.63.23,3.52,2,5.78,1.44a2.43,2.43,0,0,0,1.67-1.14c.45-1-.38-2.21-.63-2.58-1.59-2.34-5.11-3-7.73-2.81-2.88.21-6.86,1.64-7,3.68a2.82,2.82,0,0,0,1.62,2.4C500.62,192.11,501.89,189.89,504.94,190.15Z" transform="translate(0 0)"/><path class="cls-13" d="M476.22,190c2.93.09,3.86,1.89,6.57,1.24,1.86-.45,2.39-1.21,2.5-1.4a2.56,2.56,0,0,0,.17-1.74c-.58-2.44-5.83-4.41-10.59-3.75-3.27.45-7.58,2.32-7.58,4.58a3.16,3.16,0,0,0,2,2.58C471.5,192.45,472.78,189.88,476.22,190Z" transform="translate(0 0)"/><path class="cls-11" d="M449,206.78c-2-7.15-7.46-11.95-12.52-11.75-7.3.29-12.13,10.88-10.65,18,.69,3.31,3,5.86,7.61,11,1.81,2,3.34,3.58,5.78,4.41a11.43,11.43,0,0,0,5.43.39,26.24,26.24,0,0,0,4.33-8.84A25.19,25.19,0,0,0,449,206.78Z" transform="translate(0 0)"/><path class="cls-16" d="M443.33,224.7c1-.77.53-1.93.16-2.87a5.41,5.41,0,0,1-.51-3.4,3,3,0,0,1,1.23-1.61,5.79,5.79,0,0,0,1.62-1.83c1.54-2.92-.27-7.55-2.75-10.85s-5.34-5-7.6-4.57c-2,.4-3.42,2.3-4.48,5.8a1.19,1.19,0,0,0,.8,1.5,1.21,1.21,0,0,0,1.51-.8c.75-2.47,1.69-3.94,2.66-4.14,1.24-.25,3.37,1.25,5.18,3.66,2.32,3.08,3.41,6.64,2.55,8.27a3.75,3.75,0,0,1-1,1.1,5.18,5.18,0,0,0-2,2.82,6.58,6.58,0,0,0,.2,3.88c-.4-.29-.9-.67-1.51-1.17a46.13,46.13,0,0,1-4.89-4.68,1.2,1.2,0,1,0-1.79,1.61,47.16,47.16,0,0,0,5.15,4.93c3.07,2.52,4.51,3.13,5.51,2.35Z" transform="translate(0 0)"/><path class="cls-16" d="M498.83,230.32a1.16,1.16,0,0,1-1-2c2.47-2.52,3.56-4.72,3.15-6.37-.23-1-.87-1.5-2.08-2.43a17.42,17.42,0,0,1-2.45-2.2c-2.54-2.89-3.67-7.11-3.37-12.52a1.17,1.17,0,1,1,2.33.13c-.28,4.78.66,8.44,2.79,10.85a14.7,14.7,0,0,0,2.13,1.9c1.21.95,2.47,1.92,2.91,3.71.62,2.51-.64,5.39-3.75,8.55A1.15,1.15,0,0,1,498.83,230.32Z" transform="translate(0 0)"/><path class="cls-17" d="M497.65,239.22a145.57,145.57,0,0,1-14.59-2.41,1.26,1.26,0,0,0-1.46,1.65c2.24,6.56,8,9.76,11.85,8.61,2.44-.72,4.29-3.19,5.25-6.18A1.26,1.26,0,0,0,497.65,239.22Z" transform="translate(0 0)"/><path class="cls-18" d="M548.64,295.52l10.84,4.59a14.92,14.92,0,0,1,8.28,8.77c10.23,28.91,52.5,149.46,50.66,161.8-2.09,14-38.86,41.91-38.86,41.91s-59.12-64-59-67.31S548.64,295.52,548.64,295.52Z" transform="translate(0 0)"/><path class="cls-18" d="M556.52,515.19q.09,52.5-1.51,102.78L386,612.73q-9.31-158.07-18.62-316.13c17.35-5.85,34.64-11.63,52.06-17.41,5.06-1.75,10.18-3.44,15.24-5.13,29.28,26.33,47.66,37,55.13,31.82,4.52-3.2,5-12.23,1.32-27.18,6.39,1.87,12.72,3.74,19,5.55q19.26,5.69,38.5,11.26C553.56,365.16,556.4,438.49,556.52,515.19Z" transform="translate(0 0)"/><path class="cls-5" d="M592.45,965.1a488.58,488.58,0,0,1-84,10.75c-1.87-20-3.84-40.85-5.76-60.72-4.41-45.31-8.61-85.24-10.91-96.09-.4-1.89-.74-2.9-1-2.9s-.71,2.34-1.4,6.6c-.2,1.25-.42,2.67-.65,4.24C485,852.11,477,916.76,469.43,975.92a488.88,488.88,0,0,1-91.78-12.21l-3-.7q-12.32-2.93-24.39-6.48.12-10.34.13-21.64c-6.78-94.41-1.54-309.87,1.3-376.68.39-9.13.73-15.49,1-18.38a202,202,0,0,0,27.85-19q3-2.46,6.1-5.18,2.78-2.45,5.57-5.1a199.52,199.52,0,0,0,15.37-16.3,195.42,195.42,0,0,0,15.06-20.46q-.3-3.51-.65-7.11c-1.21-12.59-2.84-25.91-5-39.85q-2.78-18-6.81-37.43-1.06-5.1-2.23-10.28c-.16-.74-.33-1.47-.5-2.21q-2.15-9.33-4.46-18.26-1.17-4.54-2.38-9-1.94-7.11-3.95-14a2,2,0,0,1-.08-.26c-4.63-15.68-9.55-30.29-14.52-43.81l-.1-.28A13.4,13.4,0,0,1,395.79,285a15.32,15.32,0,0,1,3.23.93s0,0,0,0c5.64,12,11.29,24.69,16.8,38.13q1.28,3.09,2.52,6.24,2.75,6.82,5.41,13.91,3.3,8.67,6.47,17.72l.23.66q1.59,4.53,3.09,9c.59,1.76,1.17,3.5,1.74,5.24q1.36,4.14,2.66,8.24c0,.12.07.23.11.34.59,1.86,1.17,3.72,1.73,5.56.34,1.1.68,2.19,1,3.28.19.63.38,1.25.56,1.88.82,2.7,1.61,5.39,2.38,8.05v0c5.8,20.08,10.47,39.23,14.25,57.2.23,1.13.47,2.25.69,3.37.2.93.38,1.85.57,2.77l7-1.07q12.94-2,25.87-4,18.63-2.86,37.26-5.73l9-1.38v-1.09c0-1.75,0-3.5,0-5.27,0-2.76,0-5.54-.08-8.34,0-1.69,0-3.39-.09-5.09q-.18-9.17-.56-18.62c-.11-3-.25-6-.41-9h0q-.4-8.4-1-17c0-.33,0-.66-.07-1q-.23-3.28-.48-6.61-.43-5.64-.95-11.38l-.21-2.28q-1.28-13.93-3.08-28.36c-.05-.47-.11-1-.17-1.43-.11-.87-.22-1.74-.34-2.61q-1.12-8.71-2.39-17.21c0-.23-.07-.46-.1-.69q-2-13.35-4.29-26.1c-.31-1.75-.63-3.48-.95-5.21h0a19.24,19.24,0,0,1,7.51-.47,18.46,18.46,0,0,1,5.73,1.77,20.81,20.81,0,0,1,5.78,4.26c1,4.91,2.14,10.73,3.44,17.34,1.69,8.51,3.63,18.32,5.79,29.18.49,2.44,1,4.92,1.49,7.46,2.27,11.3,4.31,21.42,6.17,30.63.56,2.74,1.09,5.4,1.62,8,.24,1.2.47,2.38.71,3.54.2,1,.4,2,.59,2.92,1.18,5.86,2.29,11.34,3.33,16.56.23,1.12.45,2.24.67,3.33.26,1.32.52,2.63.78,3.91,1.55,7.79,3,15,4.35,22.16.33,1.69.66,3.36,1,5,.63,3.28,1.25,6.56,1.86,9.86q.53,2.78,1,5.58c1.3,7.05,2.61,14.32,4,22.17.83,4.68,1.58,9,2.27,12.95,1,5.53,1.81,10.44,2.55,14.93.86,5.2,1.59,9.83,2.22,14.19.53,3.68,1,7.17,1.41,10.65.14,1.2.28,2.41.41,3.62.17,1.63.36,3.43.57,5.39C594,596.27,610.7,769.7,611.28,917.3c.07,16.1-.06,30.48-.32,43.38q-7.71,2-15.51,3.75Z" transform="translate(0 0)"/><path class="cls-19" d="M437.82,580.37a125.39,125.39,0,0,0,36.23,21.68c6.35,2.45,61.92,9.21,84,11.13A183.65,183.65,0,0,1,440.26,617Z" transform="translate(0 0)"/><path class="cls-19" d="M542.72,805.89c-8.86,26.81-21.87,64.11-40,109.24-5.18-53.2-10.06-99-11.93-99-.3,0-1,3.91-2,10.84l-.54-6.08c2.86-9.64,4.95-17.56,6.33-23,3.47-13.76,3.56-16.29,6.32-23a119.79,119.79,0,0,1,10.36-19.16c3-4.67,6-8.6,7.25-10.15,1.75-2.22,3.67-4.47,3.67-4.47.76-.89,1.34-1.53,1.38-1.58,1.49-1.69,5.41-10.17,14.2-32.79a25.77,25.77,0,0,1,5.44,9.9c4.3,15.36-8.38,30.3-6.17,31.94,2.51,1.88,17.25-18.83,22.2-16.46C563.48,734.21,561,752.63,542.72,805.89Z" transform="translate(0 0)"/><path class="cls-18" d="M640,467.39q5.5,7.74,11,15.5C660.9,501.2,656,524,640.14,536.12c-17,13-42.26,10.53-56.93-6.35l27.92-61.88Z" transform="translate(0 0)"/><path class="cls-20" d="M638.47,474.6A38.92,38.92,0,0,1,648.71,490c4,11.41,3.84,28.84-8.1,39.28-9.32,8.16-21,7.87-24.46,7.65-13.1-7.82-19.77-22.73-16.74-36.46C603,484,619.93,472.14,638.47,474.6Z" transform="translate(0 0)"/><path class="cls-21" d="M643,453.19a213.56,213.56,0,0,1-6,30.67,223.23,223.23,0,0,1-19.52,47.89,14.41,14.41,0,0,1-9.16,7,329.79,329.79,0,0,1-68.5,9.46,335.71,335.71,0,0,1-106.95-13.85A24.13,24.13,0,0,1,417.76,521c-12.23-27.29-23.5-65.13-19.34-108.87.24-2.53.54-5,.84-7.41.67-4.7,1.45-9.22,2.35-13.62a464.94,464.94,0,0,1,242,14.88A217.34,217.34,0,0,1,643,453.19Z" transform="translate(0 0)"/><path class="cls-19" d="M637,483.86a223.23,223.23,0,0,1-19.52,47.89,14.41,14.41,0,0,1-9.16,7,329.79,329.79,0,0,1-68.5,9.46,335.71,335.71,0,0,1-106.95-13.85A24.13,24.13,0,0,1,417.76,521c-12.23-27.29-23.5-65.13-19.34-108.87.24-2.53.54-5,.84-7.41,10,14.49,43.06,58.4,105.5,79.24S620.27,489.44,637,483.86Z" transform="translate(0 0)"/><path class="cls-22" d="M633.65,407.29c-2.61.6-5.3,1.16-8.09,1.72-2,.42-4,.79-6.14,1.21-2.93.51-5.91,1.07-9,1.58-7.58,1.21-15.63,2.32-24.23,3.21-6,.6-12.32,1.11-18.88,1.48-.65.05-1.3.05-1.95.1-12.46.6-25.71.69-39.66,0h-.28c-3.58-.18-7.16-.42-10.65-.69-1.81-.1-3.58-.28-5.35-.42-9.44-.79-18.46-2-27.11-3.3a395.29,395.29,0,0,1-51.05-11.44c-7-2-13.44-4-19.35-6.1,4.05-.65,8.23-1.25,12.6-1.86,12.33-1.62,25.81-3,40.36-3.81,8.47-.46,17.26-.74,26.42-.79,9.44-.05,19.2.19,29.34.7q9.14.48,17.85,1.25c4.1.33,8.14.75,12.09,1.17,6.89.74,13.58,1.62,20.09,2.55,1.63.24,3.21.52,4.79.75,1.86.28,3.67.6,5.49.88,12.65,2.14,24.46,4.65,35.34,7.3l1.81.42c2.74.65,5.39,1.35,8,2S631.18,406.64,633.65,407.29Z" transform="translate(0 0)"/><path class="cls-23" d="M488.27,350.12s-9.2-19.89-10-15.74-1.66,11.32-6.63,3-19.66-20-25.3-16.92,1.82,5.05,6.24,13.06c1.65,3,1.85,4.91,1.5,6.3-.74,2.95-2.36,3.45-2.14,5.29.41,3.29,6.69,3,9.2,8a36.09,36.09,0,0,1,1.66,4.14c.71,2.21.63,2.78,1.16,3.68,1.29,2.16,4.11,2.64,5.19,2.95,9.67,2.77,22.48-8.56,22.48-8.56Z" transform="translate(0 0)"/><path class="cls-24" d="M525.4,416.63c-5.44-.28-10.79-.65-16-1.11-9.44-.79-18.46-2-27.11-3.3A102.7,102.7,0,0,1,464.85,389c-7.06-13.16-9.43-26-4.27-34,5.86-9.25,21.39-11.85,32.31-8.32,16.7,5.44,22.6,25.2,27.72,42.27A116.89,116.89,0,0,1,525.4,416.63Z" transform="translate(0 0)"/><path class="cls-25" d="M488.1,362.86c-.09-.15-.33-.17-.5-.17a22.46,22.46,0,0,0-12.25,4.24,28,28,0,0,0-5.84,5.43,32.11,32.11,0,0,0-5.11,8.94s7.73-5.15,14.36-10C484,367.39,488.6,363.69,488.1,362.86ZM501.64,377c-.1-.15-.34-.16-.5-.17a22.79,22.79,0,0,0-13,4.8h0c-.34.26-.67.51-1,.8a28.34,28.34,0,0,0-4.05,4.07c-.43.53-.91,1.14-1.4,1.85a31.55,31.55,0,0,0-3.7,7.08c.3-.2,5.18-3.46,10.43-7.19h0l1.91-1.38c2.51-1.81,5-3.66,7-5.27C500.1,379.34,502,377.56,501.64,377Zm14.22,14.44a.64.64,0,0,0-.51-.19c-2.25,0-9.85.92-16.54,7.93-.53.55-1,1.13-1.55,1.75a30.43,30.43,0,0,0-2.84,4.18c1.16.28,2.33.51,3.54.79l3.64-2.54C508.47,398.5,516.48,392.51,515.86,391.45Z" transform="translate(0 0)"/><path class="cls-26" d="M435.7,345.14s4-9.91.76-12.31a4.13,4.13,0,0,0-3-.39c-5.3.58-6.75,5.06-9.4,5-4.27-.14-3.93-12-9.94-14.36-6.74-2.7-18.83,7.49-17.56,12.4.74,2.9,5.71,2.23,7.06,5.83,1.88,5-6.34,9.58-4.69,14.37.55,1.62,5.36,3.75,15,8,4.39,1.94,5.46,2.62,7.22,4.06,2.35,1.92,3.15,3.44,4.07,3.44.71,0,1.17-.65,1.36-.87C429,367.42,434.83,348,435.7,345.14Z" transform="translate(0 0)"/><path class="cls-27" d="M509.4,415.52c-9.21-.79-18-1.91-26.46-3.17-8.23-1.3-16.09-2.74-23.53-4.37-1.2-.28-2.37-.51-3.53-.79-8.79-2-17-4.18-24.64-6.41-2.42-2.65-4.65-5.3-6.75-8C415,380.74,409.15,369.11,410.17,360a20.24,20.24,0,0,1,.88-3.76c3.4-9.3,15.67-14.51,24.7-15,19.9-1.21,35.43,19.43,51.8,41.8.41.6,1.76,2.42,3.72,5.16C495.45,394.17,502.57,404.5,509.4,415.52Z" transform="translate(0 0)"/><path class="cls-23" d="M635.89,361c-18.23,22.92-28.74,17.95-22.09,35.62.84,2.23,1.68,4.27,2.47,6.23,1.16,2.74,2.28,5.21,3.16,7.39-2.93.51-5.91,1.07-9,1.58a417.07,417.07,0,0,1-43.11,4.7c-.65,0-1.3,0-1.95.09-.09-.05-.09-.09-.09-.09s-14.74-13-14.7-25.16a13.44,13.44,0,0,1,4.14-9.76c13.53-13.72,24,10.88,25.11-24.46s23.48-78.49,28.74-52.5S594.83,351,616.45,348,654.12,338,635.89,361Z" transform="translate(0 0)"/><path class="cls-26" d="M632.87,376.92c1.07,3.3,19.9-3.07,26.5,5.58.14.18,2.84,3.81,1.68,6.93-1.38,3.69-7.14,4.59-12.88,5.53-21,3.45-31.52,5.23-31.91,7.86-.17,1.1,1.25,3,9.31,6.18-4.79,1-9.86,1.91-15.16,2.79a417.07,417.07,0,0,1-43.11,4.7c-1.86-5-3.25-11-.46-13.81,3.49-3.58,10.6.79,13.53-2.51,1.07-1.17,1.07-2.75.56-4.65-1.3-4.93-6-12-3.3-19.35,2.46-6.69,21.94,7.26,24,7,1.21-.18,1.9-5.95,1.9-5.95,2-17.06-3.11-25.76,1.4-30.08,2.14-2.1,5.95-2.65,8.18-1.4,1.68.93,2.28,2.75,2.88,5.26,4.14,16.83,2.47,21.53,22.09.55s38.36-19.9,25.11-2.23C650.21,366.69,631.75,373.48,632.87,376.92Z" transform="translate(0 0)"/><path class="cls-28" d="M586.17,415c-6,.6-12.32,1.11-18.88,1.48-.65.05-1.3.05-1.95.1-12.46.6-25.71.69-39.66,0h-.28c-3.58-.18-7.16-.42-10.65-.69,2.51-12.05,11.67-21.81,23.71-25.77a38.48,38.48,0,0,1,12.09-1.95,38,38,0,0,1,20.09,5.67A34.15,34.15,0,0,1,586.17,415Z" transform="translate(0 0)"/><path class="cls-18" d="M509,538.08c-22.41,4.22-52.36,9.4-88,14.52-1.92.3-3.79.54-5.6.78-56.09,7.9-66.27,6.57-75.07.31-9.64-6.81-12.9-16.21-16.33-65.56-.78-11.38-1.57-24.94-2.47-41-4.52-83.87-4.34-107.6,13.5-128.33a81.74,81.74,0,0,1,32.23-22.17q14,85.48,28,171,37-1,75.79-3.56,15-1,29.64-2.17a64,64,0,0,1,15.19,27.24C522.23,513.32,511.75,533.32,509,538.08Z" transform="translate(0 0)"/><path class="cls-20" d="M511.87,524.28a64,64,0,0,1-4.28,10.93,59.12,59.12,0,0,1-8.33-11.91,60.17,60.17,0,0,1-6.83-21.53,60.92,60.92,0,0,1,3.86-29.15,59.8,59.8,0,0,1,3.63-7.63c1,1.3,2.41,3.12,3.95,5.49A65.72,65.72,0,0,1,514,498.33,66.56,66.56,0,0,1,511.87,524.28Z" transform="translate(0 0)"/><path class="cls-11" d="M571.62,501.22a7.09,7.09,0,0,1,1.21,5.2c-.56,3-3.58,5.54-7.44,5.77.32.19,2.37,1.21,2.69,3.11.38,2.24-28.64,8.65-40.4,10.14-8.43-.59-16.86-1.31-25.47-1.76l-4.1-2.63a60,60,0,0,1-5.68-19.28,60.92,60.92,0,0,1,3.86-29.15l7.58-2.14,10.82-3.12a27.3,27.3,0,0,1,15.18,0q21.38,6.23,42.77,12.48a5.45,5.45,0,0,1,2.7,3.72,5.22,5.22,0,0,1-2.09,5,8.24,8.24,0,0,1,2.51,6.41A8.4,8.4,0,0,1,571.62,501.22Z" transform="translate(0 0)"/><path class="cls-11" d="M633.62,521.66c5.6-2.15,7.26-9.68,8.84-17a31.27,31.27,0,0,0,.64-10.58,41.64,41.64,0,0,0-1.61-6.69c-2.83-10.62-1.27-11.81-3.31-14.78-4-5.79-13-5.79-14.51-5.8-5.51,0-9.27,2.12-14.22,5-7.79,4.49-16.81,12.34-15.33,15.33.37.75,1.54,1.49,5.25,1.25a5.41,5.41,0,0,0-3.32,4.56c-.06,2.64,2.4,5.26,5.8,5.38a4.56,4.56,0,0,0,5.18,6.94c-1.15,1.56-1.16,2.41-.93,2.9,1.42,3,19.06,9,17.31,11.93C625.93,521.46,630,523.08,633.62,521.66Z" transform="translate(0 0)"/><path class="cls-25" d="M449.56,364.94c-.09-.16-.33-.17-.5-.18-2.13-.06-9.08.81-15.5,6.88a28.07,28.07,0,0,0-2.59,2.79,31.45,31.45,0,0,0-5.1,8.93c.27-.17,4.57-3.05,9.43-6.48C442.18,372,450.21,366,449.56,364.94Zm13.53,14.15c-.09-.16-.33-.17-.49-.18a13.44,13.44,0,0,0-2.19.16,24.51,24.51,0,0,0-11,4.78h0c-.54.42-1.06.85-1.6,1.33a28,28,0,0,0-3.26,3.4c-.49.6-1,1.31-1.59,2.13a31.66,31.66,0,0,0-2.1,3.59c-.49,1-1,2.05-1.42,3.22l2-1.34c2-1.37,5.37-3.66,8.83-6.13,3.13-2.22,6.36-4.6,8.8-6.58l.62-.51h0c.64-.52,1.2-1,1.69-1.46C462.6,380.31,463.3,379.44,463.09,379.09Zm14.23,14.43a.64.64,0,0,0-.51-.18,20.61,20.61,0,0,0-8.22,2,27.1,27.1,0,0,0-9.87,7.7,31.06,31.06,0,0,0-2.84,4.18c1.16.28,2.33.51,3.53.79h0c3.63-2.51,8.28-5.8,11.93-8.63S477.69,394.15,477.32,393.52Z" transform="translate(0 0)"/><path class="cls-26" d="M535.52,391.28q-3.72-8.61-7.42-17.21l6.64-2.08,3.72,18.18c1.12-3.27,5.65-16,9.85-15.54a3.06,3.06,0,0,1,2,1.32c1.66,2.6-.89,7.85-6.22,13.33,9.19,3.89,19.27,8.5,18.78,10-.08.26-.46.35-.76.42-5.59,1.24-20.51-6.45-20.51-4.26s-7,23.52-9.73,15.24a21,21,0,0,1,1-15.24s-13.61,3-15.05-.49a2.21,2.21,0,0,1,.08-1.63C519.71,389,533.61,391,535.52,391.28Z" transform="translate(0 0)"/><path class="cls-29" d="M582.38,411.41c1.63-1.62-4.32-11.32-7.39-10.75a3.73,3.73,0,0,0-1.87,1.12,4.31,4.31,0,0,0-.94,2.39C571.93,407.62,580.82,413,582.38,411.41Z" transform="translate(0 0)"/><path class="cls-29" d="M565.65,397.06c-.23,1.58,4.2,4.16,5.5,3.16.85-.67.89-3.34-.94-4.49S565.81,396,565.65,397.06Z" transform="translate(0 0)"/><path class="cls-30" d="M635.78,389.6a42.78,42.78,0,0,0-19.68,1.13l12-10.78c1.11-1-.53-2.64-1.65-1.64l-6.42,5.76q-.36-7.31-.71-14.62c-.07-1.49-2.4-1.5-2.33,0l.81,16.58s0,0,0,0l-7.83,7c-.27.13-.54.23-.8.36a.94.94,0,0,0-.54.84l-6.16,5.53a43.43,43.43,0,0,0-4.63-15.19c-.7-1.32-2.7-.15-2,1.18a40.58,40.58,0,0,1,4.53,15.9l-3.84,3.44c-1.11,1,.53,2.64,1.65,1.64l4.19-3.76.08-.07,8.74-7.84a39.93,39.93,0,0,1,23.95-3.27C636.62,392.1,637.25,389.86,635.78,389.6Z" transform="translate(0 0)"/><path class="cls-30" d="M592.29,327.59Q589.5,349.8,586.72,372c-.19,1.48,2.14,1.47,2.32,0q2.79-22.2,5.57-44.42C594.8,326.11,592.47,326.13,592.29,327.59Z" transform="translate(0 0)"/><path class="cls-30" d="M405.81,331.81a33.87,33.87,0,0,1,7.13,10.88,1.34,1.34,0,0,0-.62.07l-7,3.32a1.16,1.16,0,0,0-.42,1.59,1.2,1.2,0,0,0,1.59.42l7-3.32c.07,0,.08-.12.13-.17.32.94.67,1.87.91,2.83a1.16,1.16,0,0,0,2.24-.62,36.57,36.57,0,0,0-9.31-16.65C406.41,329.09,404.76,330.74,405.81,331.81Z" transform="translate(0 0)"/><path class="cls-30" d="M464.35,339.33l-1.69,2.49c-.87-2.5-1.73-5-2.6-7.49a1.16,1.16,0,0,0-2.24.62L461,344.2l0,.07a1.17,1.17,0,0,0,.42,1.59c.07,0,.14,0,.21,0,.13.35.25.71.37,1.07a1.2,1.2,0,0,0,1.43.81,1.18,1.18,0,0,0,.82-1.43l-.63-1.79,2.76-4a1.17,1.17,0,0,0-.42-1.59A1.19,1.19,0,0,0,464.35,339.33Z" transform="translate(0 0)"/><path class="cls-31" d="M531.61,338.06l-8.66-9.5a16.24,16.24,0,0,0,2.12-2.11c8.41-10.33,3.38-31.41-12.52-52.45a2.32,2.32,0,1,0-3.71,2.8c14.36,19,19.55,38.21,12.62,46.72-7.09,8.69-26.36,4.31-39.12,1.41-31.41-7.15-60.91-24.37-87.67-51.17a2.33,2.33,0,0,0-3.3,3.28c27.39,27.44,57.66,45.08,89.94,52.42,7.75,1.76,17,3.87,25.33,3.87a39.37,39.37,0,0,0,5.71-.4l-3.21,11.59a2.34,2.34,0,0,0,1.62,2.86,2.72,2.72,0,0,0,.63.08,2.33,2.33,0,0,0,2.24-1.7l3.9-14.11c.48-.18,1-.37,1.41-.58l9.23,10.12a2.33,2.33,0,0,0,3.44-3.13Z" transform="translate(0 0)"/><path class="cls-32" d="M506.46,284.16c4.61,12.48,3.8,24.42-2.78,30.65-1.31,1.25-6.87,6.08-22.55,3.94-29.48-4-51.3-26.8-61.74-39.56,5.06-1.75,10.18-3.44,15.24-5.13,29.28,26.33,47.66,37,55.13,31.82,4.52-3.2,5-12.23,1.32-27.18a57.82,57.82,0,0,1,9.55,2.8A56.47,56.47,0,0,1,506.46,284.16Z" transform="translate(0 0)"/><path class="cls-32" d="M415.47,553.38c-56.09,7.9-66.27,6.57-75.07.31-9.64-6.81-12.9-16.21-16.33-65.56a115.66,115.66,0,0,1,42.54,13.5C392,515.61,407,536.39,415.47,553.38Z" transform="translate(0 0)"/><path class="cls-33" d="M400.92,468.93a1.5,1.5,0,0,1-1.5-1.46,314.67,314.67,0,0,0-20.86-104.24,311,311,0,0,0-14.72-32.32,1.51,1.51,0,1,1,2.66-1.41,310.84,310.84,0,0,1,14.86,32.64,317.3,317.3,0,0,1,21.07,105.24,1.51,1.51,0,0,1-1.46,1.55Z" transform="translate(0 0)"/><path class="cls-33" d="M386.29,387a1.52,1.52,0,0,1-1.21-.6,54.69,54.69,0,0,0-20.55-16.71,1.51,1.51,0,1,1,1.28-2.73,57.93,57.93,0,0,1,21.68,17.63,1.5,1.5,0,0,1-.3,2.11A1.52,1.52,0,0,1,386.29,387Z" transform="translate(0 0)"/><path class="cls-33" d="M558.8,369.84h-.14a1.51,1.51,0,0,1-1.36-1.64l4.05-41.84A1.57,1.57,0,0,1,563,325a1.51,1.51,0,0,1,1.36,1.64l-4.05,41.84A1.51,1.51,0,0,1,558.8,369.84Z" transform="translate(0 0)"/><path class="cls-33" d="M389.1,612.83c-4.86,65-13.54,190.77-11.87,238.81,1.56,44.69,1,83.25.42,112.07l-3-.7c.52-28.71,1.11-67-.44-111.26-1.68-48.15,7-173.92,11.86-239,1.8-24,3.07-39.76,3.12-40.34a1.48,1.48,0,0,1,1.62-1.37,1.5,1.5,0,0,1,1.38,1.62C392.15,573.21,390.88,588.9,389.1,612.83Z" transform="translate(0 0)"/><path class="cls-33" d="M595.45,964.43l-3,.67c-.51-34.9-22-388.84-22.24-392.49a1.52,1.52,0,0,1,1.42-1.6,1.46,1.46,0,0,1,1.59,1.41C574.12,587.23,594.7,926,595.45,964.43Z" transform="translate(0 0)"/><path class="cls-33" d="M489.64,822.77a1.44,1.44,0,0,1-.4-.06,1.5,1.5,0,0,1-1.06-1.84c.47-1.72,11.4-42.16,13.63-49.09,2.35-7.31,17.26-27.24,21.69-32.22,3.36-3.78,11.39-25,14.2-32.79a1.51,1.51,0,0,1,2.84,1c-.43,1.18-10.36,28.79-14.79,33.78-4.06,4.57-18.92,24.46-21.07,31.14-2.21,6.86-13.47,48.53-13.59,48.95A1.51,1.51,0,0,1,489.64,822.77Z" transform="translate(0 0)"/><path class="cls-33" d="M503.24,797.37a1.51,1.51,0,0,1-1.14-2.49L538,753a1.51,1.51,0,0,1,2.29,2l-35.87,41.88A1.51,1.51,0,0,1,503.24,797.37Z" transform="translate(0 0)"/><path class="cls-33" d="M493,624.87a208.68,208.68,0,0,1-51.65-6.51,1.5,1.5,0,0,1-1.13-1.36l-3.58-53.69a1.51,1.51,0,0,1,3-.2l3.5,52.6a204.43,204.43,0,0,0,111.72-3.46l-3.69-39.59a1.51,1.51,0,0,1,3-.29l3.8,40.81a1.5,1.5,0,0,1-1,1.57,207.63,207.63,0,0,1-46.38,9.38Q501.84,624.88,493,624.87Z" transform="translate(0 0)"/><path class="cls-33" d="M472.54,536.71a1.45,1.45,0,0,1-1.13-.52c-4.16-4.76-13.76-17.84-13.19-36.14a51.92,51.92,0,0,1,8.46-26.6,1.51,1.51,0,0,1,2.08-.44,1.49,1.49,0,0,1,.44,2.08,49,49,0,0,0-8,25.06c-.54,17.23,8.53,29.56,12.45,34.07a1.5,1.5,0,0,1-.15,2.12A1.49,1.49,0,0,1,472.54,536.71Z" transform="translate(0 0)"/><path class="cls-34" d="M606.17,457.5c-6.79-1.27-13.66-2-20.54-2.73.28-2.76.48-5.51.5-8.28,0-1,0-2.06,0-3.1,1.28-.57,1.67-2.67,0-3H586a52.22,52.22,0,0,0-1.39-10.82c-.47-1.87-3.12-1.36-3.23.44-.21,3.22-.26,6.45-.31,9.68-3.3-.43-6.61-.76-9.93-1.05-5-.44-10-.77-14.91-1.21l-.81-.08c-2.17-.21-4.33-.48-6.5-.68-.1-2.46,0-6.08-1.67-7.75a1.6,1.6,0,0,0-2.23,0c-1.45,1.82-1.17,4.79-1.1,7.24l-5.76-.56c-4.47-.44-9-.88-13.41-1.42l-2.28-.32h0l-.52-.08a37.86,37.86,0,0,0-.46-7.75c-.3-1.67-2.68-1.41-3.13,0a42.53,42.53,0,0,0-1.48,7c-7.68-1-15.35-2.16-23-3.36l0-.29c-.14-1.41-.35-2.81-.56-4.22a9.41,9.41,0,0,0-1-3.88c-.63-1-2.42-1.27-3,0-1,2.24-.57,5.19-.37,7.65q-13.47-2.19-26.86-4.86c-1.76-.36-2.53,2.29-.75,2.72q13.91,3.34,27.91,6.09l.33,4.64c.08,1.05.17,2.1.24,3.15a180.39,180.39,0,0,0-18.08-2.68c-1.22-.1-1.26,1.61-.27,2a133.16,133.16,0,0,0,18.7,5.33l0,.34a20.32,20.32,0,0,0,2.06,8,1.46,1.46,0,0,0,2.63-.34,17.78,17.78,0,0,0,.69-6.8c3,.62,6.08,1.22,9.08,1.81,3.37.67,6.76,1.28,10.15,1.91a26.59,26.59,0,0,0,0,5.57,2.16,2.16,0,0,0,1.52,2,2.07,2.07,0,0,0,2.34-.95,25.1,25.1,0,0,0,1.61-5.57l5.27.93h0c4.27.74,8.53,1.44,12.81,2.1h0c1.61.25,3.24.47,4.86.71a.76.76,0,0,0,0,.15c-.21,2.78-.82,6.37.24,9a1.72,1.72,0,0,0,3.1.41c1.68-2.3,1.84-6,2.11-8.75v0c2.4.35,4.81.68,7.22,1,5,.68,10,1.31,15,1.85l4.2.46,4.78.5a9.9,9.9,0,0,0,.44,3,1.69,1.69,0,0,0,3.05.4,9,9,0,0,0,1.39-3,160.13,160.13,0,0,0,21,.78C607.55,460.8,608.16,457.88,606.17,457.5ZM516,440.9c-.18,1.49-.41,3-.64,4.54-3.4-.57-6.81-1.13-10.2-1.74s-6.69-1.26-10-1.93c-.16-1.49-.3-3-.46-4.48-.11-1.15-.23-2.3-.35-3.44,7.33,1.38,14.66,2.74,22,3.87C516.25,438.79,516.14,439.85,516,440.9Zm27.76,5.37c0,1.17-.15,2.33-.22,3.49-1.73-.24-3.46-.45-5.19-.7h-.06c-5.76-.84-11.49-1.72-17.23-2.64h0l-.1,0s0-.09,0-.13h0c.16-1.61.29-3.2.44-4.77.09-1,.17-2,.26-2.94l1.74.27q7.43,1.05,14.87,1.91l5.6.64C543.86,443,543.84,444.63,543.78,446.27Zm37.11.22c-.18,2.58-.38,5.16-.65,7.72-2.07-.21-4.15-.41-6.22-.64l-1-.11q-8.64-1-17.25-2.08l-6.85-.89c0-1.3.16-2.59.19-3.89,0-1.57-.06-3.13-.08-4.7,1.43.14,2.85.32,4.28.45l2.26.2c5.5.49,11,1,16.57,1.16,2.94.12,5.88.15,8.82.07C580.94,444.68,581,445.59,580.89,446.49Z" transform="translate(0 0)"/></g></g></g></g></svg>